#Comment line ignore any data following # character 
#Hierarchical Translation and Rotation (.htr) file 
[Header]	
#Header keywords are followed by a single value 
FileType HTR		#Single word string
DataType HTRS		#Translation followed by rotation and scale data
FileVersion 1		#integer
NumSegments 84		#integer
NumFrames 2		#integer
DataFrameRate 30		#integer, data frame rate in this file
EulerRotationOrder ZYX
CalibrationUnits mm
RotationUnits Degrees
GlobalAxisofGravity Y
BoneLengthAxis Y
ScaleFactor 1.00
[SegmentNames&Hierarchy]
#CHILD	PARENT
MASTER GLOBAL
root MASTER
chest root
L_mid_tent01 root
R_mid_tent01 root
spine01 root
Bip01_Neck chest
L_humerus chest
R_humerus chest
weapon_bone chest
Bip01_Head Bip01_Neck
eye_left_bone Bip01_Head
eye_right_bone Bip01_Head
L_forearm L_humerus
L_front_hand L_forearm
L_weapon_bone L_forearm
L_front_hand01_01 L_front_hand
L_front_hand02_01 L_front_hand
L_front_hand03_01 L_front_hand
L_front_hand01_02 L_front_hand01_01
L_front_hand02_02 L_front_hand02_01
L_front_hand03_02 L_front_hand03_01
R_forearm R_humerus
R_front_hand R_forearm
R_weapon_bone R_forearm
R_front_hand01_01 R_front_hand
R_front_hand02_01 R_front_hand
R_front_hand03_01 R_front_hand
R_front_hand01_02 R_front_hand01_01
R_front_hand02_02 R_front_hand02_01
R_front_hand03_02 R_front_hand03_01
null_rope01_connect L_mid_tent01
Rope1_Seg01 null_rope01_connect
Rope1_Seg02 Rope1_Seg01
Rope1_Seg03 Rope1_Seg02
Rope1_Seg04 Rope1_Seg03
Rope1_Seg05 Rope1_Seg04
Rope1_Seg06 Rope1_Seg05
Rope1_Seg07 Rope1_Seg06
Rope1_Seg09 Rope1_Seg07
L_mid_hand01 Rope1_Seg09
L_mid_hand02 Rope1_Seg09
L_mid_hand03 Rope1_Seg09
null_rope02_connect R_mid_tent01
Rope2_Seg01 null_rope02_connect
Rope2_Seg02 Rope2_Seg01
Rope2_Seg03 Rope2_Seg02
Rope2_Seg04 Rope2_Seg03
Rope2_Seg05 Rope2_Seg04
Rope2_Seg06 Rope2_Seg05
Rope2_Seg07 Rope2_Seg06
Rope2_Seg09 Rope2_Seg07
R_mid_hand01 Rope2_Seg09
R_mid_hand02 Rope2_Seg09
R_mid_hand03 Rope2_Seg09
spine02 spine01
spine03 spine02
pelvis spine03
null_rope03_connect pelvis
null_rope04_connect pelvis
Rope3_Seg01 null_rope03_connect
Rope3_Seg02 Rope3_Seg01
Rope3_Seg03 Rope3_Seg02
Rope3_Seg04 Rope3_Seg03
Rope3_Seg05 Rope3_Seg04
Rope3_Seg06 Rope3_Seg05
Rope3_Seg07 Rope3_Seg06
Rope3_Seg08 Rope3_Seg07
Rope3_Seg09 Rope3_Seg08
R_rear_hand01 Rope3_Seg09
R_rear_hand02 Rope3_Seg09
R_rear_hand03 Rope3_Seg09
Rope4_Seg01 null_rope04_connect
Rope4_Seg02 Rope4_Seg01
Rope4_Seg03 Rope4_Seg02
Rope4_Seg04 Rope4_Seg03
Rope4_Seg05 Rope4_Seg04
Rope4_Seg06 Rope4_Seg05
Rope4_Seg07 Rope4_Seg06
Rope4_Seg08 Rope4_Seg07
Rope4_Seg09 Rope4_Seg08
L_rear_hand01 Rope4_Seg09
L_rear_hand02 Rope4_Seg09
L_rear_hand03 Rope4_Seg09
[BasePosition]
#SegmentName Tx, Ty, Tz, Rx, Ry, Rz, BoneLength
MASTER 0.000000 0.000000 0.000000 -90.000000 0.000000 0.000000 10.000000 
root 0.000000 0.000000 0.000000 0.000000 0.000000 0.000000 10.000000 
chest 0.000000 0.000000 0.000000 0.000000 0.000000 0.000000 10.000000 
L_mid_tent01 0.000000 0.000000 0.000000 0.000000 0.000000 0.000000 10.000000 
R_mid_tent01 0.000000 0.000000 0.000000 0.000000 0.000000 0.000000 10.000000 
spine01 0.000000 0.000000 0.000000 0.000000 0.000000 0.000000 10.000000 
Bip01_Neck 0.000000 0.000000 0.000000 0.000000 0.000000 0.000000 10.000000 
L_humerus 0.000000 0.000000 0.000000 0.000000 0.000000 0.000000 10.000000 
R_humerus 0.000000 0.000000 0.000000 0.000000 0.000000 0.000000 10.000000 
weapon_bone 0.000000 0.000000 0.000000 0.000000 0.000000 0.000000 10.000000 
Bip01_Head 0.000000 0.000000 0.000000 0.000000 0.000000 0.000000 10.000000 
eye_left_bone 0.000000 0.000000 0.000000 0.000000 0.000000 0.000000 10.000000 
eye_right_bone 0.000000 0.000000 0.000000 0.000000 0.000000 0.000000 10.000000 
L_forearm 0.000000 0.000000 0.000000 0.000000 0.000000 0.000000 10.000000 
L_front_hand 0.000000 0.000000 0.000000 0.000000 0.000000 0.000000 10.000000 
L_weapon_bone 0.000000 0.000000 0.000000 0.000000 0.000000 0.000000 10.000000 
L_front_hand01_01 0.000000 0.000000 0.000000 0.000000 0.000000 0.000000 10.000000 
L_front_hand02_01 0.000000 0.000000 0.000000 0.000000 0.000000 0.000000 10.000000 
L_front_hand03_01 0.000000 0.000000 0.000000 0.000000 0.000000 0.000000 10.000000 
L_front_hand01_02 0.000000 0.000000 0.000000 0.000000 0.000000 0.000000 10.000000 
L_front_hand02_02 0.000000 0.000000 0.000000 0.000000 0.000000 0.000000 10.000000 
L_front_hand03_02 0.000000 0.000000 0.000000 0.000000 0.000000 0.000000 10.000000 
R_forearm 0.000000 0.000000 0.000000 0.000000 0.000000 0.000000 10.000000 
R_front_hand 0.000000 0.000000 0.000000 0.000000 0.000000 0.000000 10.000000 
R_weapon_bone 0.000000 0.000000 0.000000 0.000000 0.000000 0.000000 10.000000 
R_front_hand01_01 0.000000 0.000000 0.000000 0.000000 0.000000 0.000000 10.000000 
R_front_hand02_01 0.000000 0.000000 0.000000 0.000000 0.000000 0.000000 10.000000 
R_front_hand03_01 0.000000 0.000000 0.000000 0.000000 0.000000 0.000000 10.000000 
R_front_hand01_02 0.000000 0.000000 0.000000 0.000000 0.000000 0.000000 10.000000 
R_front_hand02_02 0.000000 0.000000 0.000000 0.000000 0.000000 0.000000 10.000000 
R_front_hand03_02 0.000000 0.000000 0.000000 0.000000 0.000000 0.000000 10.000000 
null_rope01_connect 0.000000 0.000000 0.000000 0.000000 0.000000 0.000000 10.000000 
Rope1_Seg01 0.000000 0.000000 0.000000 0.000000 0.000000 0.000000 10.000000 
Rope1_Seg02 0.000000 0.000000 0.000000 0.000000 0.000000 0.000000 10.000000 
Rope1_Seg03 0.000000 0.000000 0.000000 0.000000 0.000000 0.000000 10.000000 
Rope1_Seg04 0.000000 0.000000 0.000000 0.000000 0.000000 0.000000 10.000000 
Rope1_Seg05 0.000000 0.000000 0.000000 0.000000 0.000000 0.000000 10.000000 
Rope1_Seg06 0.000000 0.000000 0.000000 0.000000 0.000000 0.000000 10.000000 
Rope1_Seg07 0.000000 0.000000 0.000000 0.000000 0.000000 0.000000 10.000000 
Rope1_Seg09 0.000000 0.000000 0.000000 0.000000 0.000000 0.000000 10.000000 
L_mid_hand01 0.000000 0.000000 0.000000 0.000000 0.000000 0.000000 10.000000 
L_mid_hand02 0.000000 0.000000 0.000000 0.000000 0.000000 0.000000 10.000000 
L_mid_hand03 0.000000 0.000000 0.000000 0.000000 0.000000 0.000000 10.000000 
null_rope02_connect 0.000000 0.000000 0.000000 0.000000 0.000000 0.000000 10.000000 
Rope2_Seg01 0.000000 0.000000 0.000000 0.000000 0.000000 0.000000 10.000000 
Rope2_Seg02 0.000000 0.000000 0.000000 0.000000 0.000000 0.000000 10.000000 
Rope2_Seg03 0.000000 0.000000 0.000000 0.000000 0.000000 0.000000 10.000000 
Rope2_Seg04 0.000000 0.000000 0.000000 0.000000 0.000000 0.000000 10.000000 
Rope2_Seg05 0.000000 0.000000 0.000000 0.000000 0.000000 0.000000 10.000000 
Rope2_Seg06 0.000000 0.000000 0.000000 0.000000 0.000000 0.000000 10.000000 
Rope2_Seg07 0.000000 0.000000 0.000000 0.000000 0.000000 0.000000 10.000000 
Rope2_Seg09 0.000000 0.000000 0.000000 0.000000 0.000000 0.000000 10.000000 
R_mid_hand01 0.000000 0.000000 0.000000 0.000000 0.000000 0.000000 10.000000 
R_mid_hand02 0.000000 0.000000 0.000000 0.000000 0.000000 0.000000 10.000000 
R_mid_hand03 0.000000 0.000000 0.000000 0.000000 0.000000 0.000000 10.000000 
spine02 0.000000 0.000000 0.000000 0.000000 0.000000 0.000000 10.000000 
spine03 0.000000 0.000000 0.000000 0.000000 0.000000 0.000000 10.000000 
pelvis 0.000000 0.000000 0.000000 0.000000 0.000000 0.000000 10.000000 
null_rope03_connect 0.000000 0.000000 0.000000 0.000000 0.000000 0.000000 10.000000 
null_rope04_connect 0.000000 0.000000 0.000000 0.000000 0.000000 0.000000 10.000000 
Rope3_Seg01 0.000000 0.000000 0.000000 0.000000 0.000000 0.000000 10.000000 
Rope3_Seg02 0.000000 0.000000 0.000000 0.000000 0.000000 0.000000 10.000000 
Rope3_Seg03 0.000000 0.000000 0.000000 0.000000 0.000000 0.000000 10.000000 
Rope3_Seg04 0.000000 0.000000 0.000000 0.000000 0.000000 0.000000 10.000000 
Rope3_Seg05 0.000000 0.000000 0.000000 0.000000 0.000000 0.000000 10.000000 
Rope3_Seg06 0.000000 0.000000 0.000000 0.000000 0.000000 0.000000 10.000000 
Rope3_Seg07 0.000000 0.000000 0.000000 0.000000 0.000000 0.000000 10.000000 
Rope3_Seg08 0.000000 0.000000 0.000000 0.000000 0.000000 0.000000 10.000000 
Rope3_Seg09 0.000000 0.000000 0.000000 0.000000 0.000000 0.000000 10.000000 
R_rear_hand01 0.000000 0.000000 0.000000 0.000000 0.000000 0.000000 10.000000 
R_rear_hand02 0.000000 0.000000 0.000000 0.000000 0.000000 0.000000 10.000000 
R_rear_hand03 0.000000 0.000000 0.000000 0.000000 0.000000 0.000000 10.000000 
Rope4_Seg01 0.000000 0.000000 0.000000 0.000000 0.000000 0.000000 10.000000 
Rope4_Seg02 0.000000 0.000000 0.000000 0.000000 0.000000 0.000000 10.000000 
Rope4_Seg03 0.000000 0.000000 0.000000 0.000000 0.000000 0.000000 10.000000 
Rope4_Seg04 0.000000 0.000000 0.000000 0.000000 0.000000 0.000000 10.000000 
Rope4_Seg05 0.000000 0.000000 0.000000 0.000000 0.000000 0.000000 10.000000 
Rope4_Seg06 0.000000 0.000000 0.000000 0.000000 0.000000 0.000000 10.000000 
Rope4_Seg07 0.000000 0.000000 0.000000 0.000000 0.000000 0.000000 10.000000 
Rope4_Seg08 0.000000 0.000000 0.000000 0.000000 0.000000 0.000000 10.000000 
Rope4_Seg09 0.000000 0.000000 0.000000 0.000000 0.000000 0.000000 10.000000 
L_rear_hand01 0.000000 0.000000 0.000000 0.000000 0.000000 0.000000 10.000000 
L_rear_hand02 0.000000 0.000000 0.000000 0.000000 0.000000 0.000000 10.000000 
L_rear_hand03 0.000000 0.000000 0.000000 0.000000 0.000000 0.000000 10.000000 
#Beginning of Data. Separated by tabs
#Fr	Tx	Ty	Tz	Rx	Ry	Rz	SF
[MASTER]
5 449.154602 -0.000068 0.000000 0.002347 0.000000 89.997704 449.154602
6 635.675110 -0.000096 0.000000 0.002347 0.000000 89.997704 635.675110
[root]
5 -62.822105 16.502304 1113.732422 -158.655640 -27.746946 -178.502304 1115.624878
6 -62.822105 16.502304 1038.724731 -179.198883 -27.677608 -178.151306 1040.753662
[chest]
5 -84.512650 -34.090519 0.000000 -71.846970 7.167559 169.958893 91.129311
6 -84.512650 -34.090519 0.000000 -95.161934 5.051901 166.521729 91.129311
[L_mid_tent01]
5 27.456968 22.087250 -250.929810 -29.233292 5.981930 21.382013 253.391983
6 27.471481 22.078964 -251.022995 -29.731777 4.232399 19.474463 253.485107
[R_mid_tent01]
5 23.228794 24.509907 226.238495 -153.571594 -44.383675 26.425430 228.744751
6 23.228794 24.509907 226.238495 -153.054871 -44.541176 25.448687 228.744751
[spine01]
5 -0.361383 -0.195265 0.000000 2.980417 0.746728 -2.200461 0.410763
6 -0.361383 -0.195265 0.000000 5.651736 0.863922 -2.917227 0.410763
[Bip01_Neck]
5 165.484543 71.581718 0.000119 175.896118 1.177290 24.871185 180.302734
6 165.484543 71.581718 0.000119 175.896118 1.177290 24.871183 180.302734
[L_humerus]
5 -13.983130 -135.272980 -120.471481 170.940796 81.564224 -99.189163 181.680161
6 -13.983130 -135.272980 -120.471481 170.940811 81.564247 -99.189163 181.680161
[R_humerus]
5 -13.983309 -135.273102 125.287651 -159.666046 -68.957878 -101.166100 184.909012
6 -13.983309 -135.273102 125.287651 -159.666046 -68.957870 -101.166077 184.909012
[weapon_bone]
5 235.964890 -300.705902 0.000000 0.000000 -89.951546 -128.212341 382.234833
6 235.964890 -300.705902 0.000000 0.000000 -89.951546 -128.212341 382.234833
[Bip01_Head]
5 261.355804 108.959381 -2.864171 2.248029 5.843377 -62.458344 283.173492
6 261.355804 108.959389 -2.864166 2.248029 5.843377 -62.458344 283.173492
[eye_left_bone]
5 -24.626970 125.451866 -64.772606 0.000000 -90.000000 -99.840431 143.318359
6 -24.626970 125.451866 -64.772606 0.000000 -90.000000 -99.840431 143.318359
[eye_right_bone]
5 -24.626970 125.451866 64.327362 0.000000 -89.960434 80.159386 143.117676
6 -24.626970 125.451866 64.327362 0.000000 -89.960434 80.159386 143.117676
[L_forearm]
5 322.776093 0.000000 -0.000119 0.000471 0.002300 -66.859398 322.776093
6 322.776093 0.000000 -0.000119 0.000471 0.002300 -66.859383 322.776093
[L_front_hand]
5 241.149185 -0.042021 -3.300071 -178.667953 -1.835447 -27.422350 241.171753
6 241.149185 -0.042021 -3.300071 -178.667953 -1.835447 -27.422342 241.171753
[L_weapon_bone]
5 156.183838 0.000000 0.000000 0.002111 0.001027 38.114681 156.183838
6 156.183838 0.000000 0.000000 0.002069 0.001109 33.607582 156.183838
[L_front_hand01_01]
5 86.095154 20.947098 -0.655860 -0.365397 -0.478071 75.098351 88.609184
6 86.095154 20.947098 -0.655860 -0.366594 -0.477154 75.385574 88.609184
[L_front_hand02_01]
5 86.935165 -11.437475 24.513514 153.962997 -59.762066 -60.859097 91.046425
6 86.935165 -11.437475 24.513514 154.403519 -59.888931 -61.371990 91.046425
[L_front_hand03_01]
5 86.637497 -14.123976 -20.424902 -153.509613 57.991444 -62.227245 90.126129
6 86.637497 -14.123976 -20.424902 -153.913849 58.118122 -62.702866 90.126129
[L_front_hand01_02]
5 71.020905 -0.000179 0.000030 0.001530 0.001780 -8.661532 71.020905
6 71.020905 -0.000179 0.000030 0.001517 0.001791 -9.480136 71.020905
[L_front_hand02_02]
5 71.020927 -0.000119 0.000060 0.001530 0.001780 -8.661532 71.020927
6 71.020927 -0.000119 0.000060 0.001517 0.001791 -9.480136 71.020927
[L_front_hand03_02]
5 71.020905 -0.000060 0.000060 0.001530 0.001780 -8.661532 71.020905
6 71.020905 -0.000060 0.000060 0.001517 0.001791 -9.480136 71.020905
[R_forearm]
5 322.776428 -0.000060 0.000030 0.199694 -0.075621 -69.903061 322.776428
6 322.776428 -0.000060 0.000030 0.199694 -0.075621 -69.903069 322.776428
[R_front_hand]
5 238.847015 -0.006795 2.210259 -1.531694 0.790216 -51.443062 238.857239
6 238.847015 -0.006795 2.210259 -1.531694 0.790216 -51.443054 238.857239
[R_weapon_bone]
5 155.664093 0.002503 -0.000030 0.002747 0.002450 -137.059357 155.664078
6 155.664093 0.002503 -0.000030 0.002801 0.002388 -134.507675 155.664078
[R_front_hand01_01]
5 87.624611 14.231146 22.918642 -154.633499 -59.950619 61.746044 91.683487
6 87.624611 14.231146 22.918642 -154.633499 -59.950619 61.746044 91.683487
[R_front_hand02_01]
5 89.356956 14.367283 -19.491137 154.602661 58.302849 63.744389 92.579636
6 89.356956 14.367283 -19.491137 154.602661 58.302849 63.744389 92.579636
[R_front_hand03_01]
5 87.286232 -22.307278 -0.143439 0.162155 -0.423168 -75.767921 90.091743
6 87.286232 -22.307278 -0.143439 0.162155 -0.423168 -75.767921 90.091743
[R_front_hand01_02]
5 71.020905 0.000060 0.000119 0.001780 0.001530 8.659903 71.020905
6 71.020905 0.000060 0.000119 0.001791 0.001517 9.478504 71.020905
[R_front_hand02_02]
5 71.020844 -0.000030 -0.000119 0.001780 0.001530 8.659903 71.020836
6 71.020844 -0.000030 -0.000119 0.001791 0.001517 9.478504 71.020836
[R_front_hand03_02]
5 71.020905 0.000000 0.000030 0.001780 0.001530 8.659903 71.020905
6 71.020905 0.000000 0.000030 0.001791 0.001517 9.478504 71.020905
[null_rope01_connect]
5 328.732483 0.000000 -0.000238 -157.478836 7.392278 -110.891678 328.732483
6 328.732483 0.000000 -0.000238 -158.256531 27.803516 -110.338150 328.732483
[Rope1_Seg01]
5 0.000000 0.000000 0.000000 -9.448057 20.027905 174.985138 0.000000
6 0.000000 0.000000 0.000000 -18.349150 -9.480413 -175.053589 0.000000
[Rope1_Seg02]
5 139.999863 -0.000179 0.000000 -1.029834 -3.890816 -21.578703 139.999863
6 139.999863 -0.000179 0.000000 -8.313808 -12.972640 -51.179905 139.999863
[Rope1_Seg03]
5 139.999924 0.000060 -0.000060 13.104597 -8.600860 -44.423229 139.999924
6 139.999924 0.000060 -0.000060 8.704629 -1.205860 -42.930737 139.999924
[Rope1_Seg04]
5 139.999924 -0.000060 -0.000119 23.699907 -7.329300 -34.232937 139.999924
6 139.999924 -0.000060 -0.000119 8.151848 6.161319 -22.006550 139.999924
[Rope1_Seg05]
5 139.999832 0.000119 -0.000060 11.806272 -4.523170 -12.164949 139.999832
6 139.999832 0.000119 -0.000060 6.480794 1.164176 -8.411259 139.999832
[Rope1_Seg06]
5 139.999954 0.000119 -0.000060 5.145889 -3.054454 -3.870418 139.999954
6 139.999954 0.000119 -0.000060 4.255319 -0.208224 -3.812637 139.999954
[Rope1_Seg07]
5 139.999985 0.000060 0.000000 2.919288 -1.907101 -1.991585 139.999985
6 139.999985 0.000060 0.000000 2.966155 -0.299840 -2.306780 139.999985
[Rope1_Seg09]
5 121.602913 0.000119 -0.000089 -89.793175 -1.359789 0.847147 121.602913
6 121.602913 0.000119 -0.000089 -89.793175 -1.359789 0.847147 121.602913
[L_mid_hand01]
5 103.859421 1.038730 8.195221 111.431297 -47.263840 -16.612019 104.187431
6 103.859421 1.038730 8.195221 111.431305 -47.263851 -16.612017 104.187431
[L_mid_hand02]
5 105.572853 -4.139662 -10.864139 -150.709808 35.166882 -45.161087 106.211075
6 105.572853 -4.139662 -10.864139 -150.709808 35.166882 -45.161087 106.211075
[L_mid_hand03]
5 104.641464 17.579376 -3.913581 -12.649597 13.975001 50.985863 106.179977
6 104.641464 17.579376 -3.913581 -12.649596 13.974999 50.985855 106.179977
[null_rope02_connect]
5 328.732849 0.000179 -0.000119 -20.721741 59.247467 91.958122 328.732849
6 328.732849 0.000179 -0.000119 -4.644328 43.243019 111.534569 328.732849
[Rope2_Seg01]
5 -0.000070 0.000134 0.000153 -42.958679 45.933460 -118.786156 0.000215
6 -0.000069 0.000134 0.000153 -46.003597 26.512339 -125.920273 0.000214
[Rope2_Seg02]
5 139.999741 -0.000060 -0.000119 -1.621659 19.173542 -7.636091 139.999756
6 139.999741 -0.000060 -0.000119 -1.380881 19.805922 -13.418006 139.999756
[Rope2_Seg03]
5 140.000107 0.000030 0.000000 -13.316423 39.919388 -16.613249 140.000107
6 140.000107 0.000030 0.000000 3.563336 38.608101 -29.019617 140.000107
[Rope2_Seg04]
5 139.999802 0.000000 -0.000060 -144.836014 30.090195 -7.893615 139.999802
6 139.999802 0.000000 -0.000060 121.271072 18.106052 -19.675158 139.999802
[Rope2_Seg05]
5 139.999985 -0.000060 0.000119 -26.234959 -8.067453 16.086733 139.999985
6 139.999985 -0.000060 0.000119 6.863895 -15.319947 3.092474 139.999985
[Rope2_Seg06]
5 139.999893 -0.000030 -0.000119 -4.135064 -8.105372 6.434828 139.999893
6 139.999893 -0.000030 -0.000119 -0.914438 -12.749819 6.008715 139.999893
[Rope2_Seg07]
5 139.999893 0.000060 -0.000060 -0.999968 -4.620284 2.858775 139.999893
6 139.999893 0.000060 -0.000060 0.581437 -7.252226 2.348663 139.999893
[Rope2_Seg09]
5 121.338966 0.000089 -0.000060 33.793236 -1.359788 -0.847141 121.338966
6 121.338966 0.000089 -0.000060 33.793236 -1.359788 -0.847141 121.338966
[R_mid_hand01]
5 104.680779 11.144459 -10.335981 -34.269653 35.095993 42.885235 105.778534
6 104.680779 11.144459 -10.335981 -34.269650 35.095989 42.885235 105.778534
[R_mid_hand02]
5 104.070427 2.443552 8.231699 68.449066 -47.537163 16.779839 104.424065
6 104.070427 2.443552 8.231699 68.449066 -47.537163 16.779839 104.424065
[R_mid_hand03]
5 106.028137 -11.221827 -5.996406 -171.106766 13.128626 -52.726494 106.788818
6 106.028137 -11.221827 -5.996406 -171.106766 13.128626 -52.726494 106.788818
[spine02]
5 129.756927 0.001550 0.000119 -0.245322 -4.052059 -4.355546 129.756927
6 129.756927 0.001550 0.000119 -0.245322 -4.052060 -4.355547 129.756927
[spine03]
5 78.613739 0.087152 -4.898877 0.369658 4.260732 -4.885719 78.766273
6 78.613739 0.087158 -4.898897 0.369659 4.260734 -4.885721 78.766273
[pelvis]
5 169.435242 0.051022 0.000000 -0.010057 -0.196355 -1.820888 169.435257
6 169.435242 0.051022 0.000000 -0.010069 -0.196354 -1.813469 169.435257
[null_rope03_connect]
5 -1.257226 -2.466202 137.391083 -152.273758 -25.500122 -75.488289 137.418976
6 -1.257226 -2.466202 137.391083 -152.052673 -7.801511 -74.370407 137.418976
[null_rope04_connect]
5 -1.259640 -2.480268 -137.844437 -152.273758 -25.500122 -75.488289 137.872513
6 -1.259640 -2.480268 -137.844437 -152.052673 -7.801511 -74.370407 137.872513
[Rope3_Seg01]
5 0.000000 0.000000 0.000000 -1.921077 -0.252657 -12.448891 0.000000
6 0.000000 0.000000 0.000000 26.811974 15.357991 -23.796766 0.000000
[Rope3_Seg02]
5 139.999924 -0.000119 0.000060 8.584896 11.213838 14.914358 139.999924
6 139.999924 -0.000119 0.000060 26.162004 16.780190 3.486177 139.999924
[Rope3_Seg03]
5 139.999924 -0.000119 0.000119 162.973343 13.675954 15.543747 139.999924
6 139.999924 -0.000119 0.000119 47.691074 22.437027 -5.378465 139.999924
[Rope3_Seg04]
5 139.999924 0.000119 0.000000 7.287305 -5.780704 -14.274594 139.999924
6 139.999924 0.000119 0.000000 21.791830 9.347079 -16.723034 139.999924
[Rope3_Seg05]
5 139.999924 -0.000238 0.000060 -1.329823 -14.884142 -17.133966 139.999924
6 139.999924 -0.000238 0.000060 9.544414 -1.249138 -25.172604 139.999924
[Rope3_Seg06]
5 139.999893 -0.000119 -0.000060 0.912262 -14.210408 -16.883574 139.999893
6 139.999893 -0.000119 -0.000060 3.530731 -5.272980 -21.060549 139.999893
[Rope3_Seg07]
5 139.999771 0.000060 -0.000119 0.780915 -6.396398 -8.331472 139.999771
6 139.999771 0.000060 -0.000119 0.854361 -2.528795 -9.377479 139.999771
[Rope3_Seg08]
5 139.999985 -0.000060 0.000000 0.619449 -3.439606 -4.411828 139.999985
6 139.999985 -0.000060 0.000000 0.471030 -1.374290 -4.872401 139.999985
[Rope3_Seg09]
5 90.185997 -0.000179 -0.000060 89.793228 -1.359877 -0.847183 90.185997
6 90.185997 -0.000179 -0.000060 89.793228 -1.359877 -0.847183 90.185997
[R_rear_hand01]
5 103.366196 -6.073594 -10.757982 -166.970291 21.129854 -46.704182 104.101845
6 103.366196 -6.073594 -10.757982 -166.970291 21.129850 -46.704182 104.101845
[R_rear_hand02]
5 100.509819 12.039542 -7.992327 -28.148870 27.804201 44.102722 101.543350
6 100.509819 12.039542 -7.992327 -28.148869 27.804199 44.102722 101.543350
[R_rear_hand03]
5 101.539970 5.215704 5.435467 81.628380 -47.127724 10.016966 101.819031
6 101.539970 5.215704 5.435467 81.628380 -47.127724 10.016966 101.819031
[Rope4_Seg01]
5 0.000000 0.000000 0.000000 134.020508 -82.948563 5.725309 0.000000
6 0.000000 0.000000 0.000000 161.215820 -62.466766 -18.612638 0.000000
[Rope4_Seg02]
5 139.999985 0.000060 0.000119 -19.485481 -3.864574 -36.742771 139.999985
6 139.999985 0.000060 0.000119 -45.867775 -9.301181 -38.966000 139.999985
[Rope4_Seg03]
5 139.999924 0.000000 -0.000238 -24.432341 4.644114 -27.367641 139.999924
6 139.999924 0.000000 -0.000238 -38.052753 15.803733 -25.501028 139.999924
[Rope4_Seg04]
5 139.999985 0.000000 0.000119 -10.278426 7.725173 -9.716571 139.999985
6 139.999985 0.000000 0.000119 -7.792079 12.132565 -4.487246 139.999985
[Rope4_Seg05]
5 139.999802 -0.000060 -0.000119 -4.739272 9.080324 -3.309790 139.999802
6 139.999802 -0.000060 -0.000119 -3.335603 10.279072 -1.321799 139.999802
[Rope4_Seg06]
5 139.999924 0.000000 0.000060 -2.506570 9.157094 -1.206538 139.999924
6 139.999924 0.000000 0.000060 -1.688389 9.006962 -0.419094 139.999924
[Rope4_Seg07]
5 139.999802 0.000000 0.000000 -1.274170 5.663318 -1.264728 139.999802
6 139.999802 0.000000 0.000000 -0.661789 5.665173 -0.298481 139.999802
[Rope4_Seg08]
5 139.999924 0.000000 0.000119 -2.149812 3.569404 -0.758192 139.999924
6 139.999924 0.000000 0.000119 -1.814072 3.576067 -0.149002 139.999924
[Rope4_Seg09]
5 90.185791 0.000060 0.000060 -135.617828 2.228885 0.850567 90.185791
6 90.185791 0.000060 0.000060 -135.617828 2.228885 0.850567 90.185791
[L_rear_hand01]
5 101.696655 -8.392275 -7.654577 -27.705481 -28.251705 134.947800 102.329041
6 101.696655 -8.392275 -7.654577 -27.705481 -28.251705 134.947800 102.329041
[L_rear_hand02]
5 102.726799 -1.568258 5.773216 81.477219 48.065086 169.775513 102.900848
6 102.726799 -1.568258 5.773216 81.477219 48.065086 169.775513 102.900848
[L_rear_hand03]
5 104.552910 9.721220 -10.420293 -167.330078 -21.338425 -132.303940 105.519653
6 104.552910 9.721220 -10.420293 -167.330078 -21.338425 -132.303940 105.519653
